<svg width="72" height="88" viewBox="0 0 72 88" fill="none" xmlns="http://www.w3.org/2000/svg">
<path d="M39 20.6189C30.474 10.2456 18.624 7.84386 12.534 15.2534M12.534 15.2534C6.444 22.6629 8.421 37.0767 16.944 47.45M12.534 15.2534C13.269 19.7283 17.166 29.4701 26.874 32.6894M27.633 72.2298C33.891 79.8437 46.071 77.3763 54.834 66.7147C63.594 56.0531 65.625 41.2377 59.364 33.6202C55.59 34.5363 47.352 39.4091 44.631 51.5417C40.746 68.8792 32.163 70.3866 27.63 72.2262M27.636 72.2335C21.378 64.616 23.406 49.8006 32.169 39.139C40.932 28.481 53.109 26.0099 59.37 33.6275" stroke="#E3F0AF" stroke-width="4.5" stroke-linecap="round" stroke-linejoin="round"/>
</svg>
