<svg width="106" height="28" viewBox="0 0 106 28" fill="none" xmlns="http://www.w3.org/2000/svg">
<path d="M0.295456 11.7955V0.159092H3.45455V4.86364H3.61364L7.11364 0.159092H10.7955L6.86364 5.34091L10.8864 11.7955H7.11364L4.5 7.43182L3.45455 8.79546V11.7955H0.295456ZM22.2713 5.97727C22.2713 7.27273 22.0194 8.36553 21.5156 9.25568C21.0118 10.142 20.3319 10.8144 19.4759 11.2727C18.6198 11.7273 17.6652 11.9545 16.6122 11.9545C15.5516 11.9545 14.5933 11.7254 13.7372 11.267C12.8849 10.8049 12.2069 10.1307 11.7031 9.24432C11.2031 8.35417 10.9531 7.26515 10.9531 5.97727C10.9531 4.68182 11.2031 3.59091 11.7031 2.70455C12.2069 1.81439 12.8849 1.14205 13.7372 0.687501C14.5933 0.229168 15.5516 9.53674e-07 16.6122 9.53674e-07C17.6652 9.53674e-07 18.6198 0.229168 19.4759 0.687501C20.3319 1.14205 21.0118 1.81439 21.5156 2.70455C22.0194 3.59091 22.2713 4.68182 22.2713 5.97727ZM19.0213 5.97727C19.0213 5.2803 18.9285 4.69318 18.7429 4.21591C18.5611 3.73485 18.2902 3.37121 17.9304 3.125C17.5743 2.875 17.1349 2.75 16.6122 2.75C16.0895 2.75 15.6482 2.875 15.2884 3.125C14.9323 3.37121 14.6615 3.73485 14.4759 4.21591C14.294 4.69318 14.2031 5.2803 14.2031 5.97727C14.2031 6.67424 14.294 7.26326 14.4759 7.74432C14.6615 8.22159 14.9323 8.58523 15.2884 8.83523C15.6482 9.08144 16.0895 9.20455 16.6122 9.20455C17.1349 9.20455 17.5743 9.08144 17.9304 8.83523C18.2902 8.58523 18.5611 8.22159 18.7429 7.74432C18.9285 7.26326 19.0213 6.67424 19.0213 5.97727ZM23.733 11.7955V0.159092H28.7557C29.6193 0.159092 30.375 0.329547 31.0227 0.670456C31.6705 1.01136 32.1742 1.49053 32.5341 2.10796C32.8939 2.72538 33.0739 3.44697 33.0739 4.27273C33.0739 5.10606 32.8883 5.82765 32.517 6.4375C32.1496 7.04735 31.6326 7.51705 30.9659 7.84659C30.303 8.17614 29.5284 8.34091 28.642 8.34091H25.642V5.88636H28.0057C28.3769 5.88636 28.6932 5.82197 28.9545 5.69318C29.2197 5.56061 29.4224 5.37311 29.5625 5.13068C29.7064 4.88826 29.7784 4.60227 29.7784 4.27273C29.7784 3.93939 29.7064 3.6553 29.5625 3.42046C29.4224 3.18182 29.2197 3 28.9545 2.875C28.6932 2.74621 28.3769 2.68182 28.0057 2.68182H26.892V11.7955H23.733ZM37.392 0.159092V11.7955H34.233V0.159092H37.392ZM42.0767 11.7955V0.159092H45.2358V4.86364H45.3949L48.8949 0.159092H52.5767L48.6449 5.34091L52.6676 11.7955H48.8949L46.2813 7.43182L45.2358 8.79546V11.7955H42.0767ZM53.5142 11.7955V0.159092H61.9006V2.70455H56.6733V4.70455H61.4688V7.25H56.6733V9.25H61.8778V11.7955H53.5142ZM73.5355 0.159092V11.7955H70.8991L66.6946 5.68182H66.6264V11.7955H63.4673V0.159092H66.1491L70.2855 6.25H70.3764V0.159092H73.5355ZM74.7116 2.70455V0.159092H84.8253V2.70455H81.3253V11.7955H78.2116V2.70455H74.7116ZM87.5682 11.7955H84.1591L88 0.159092H92.3182L96.1591 11.7955H92.75L90.2045 3.36364H90.1136L87.5682 11.7955ZM86.9318 7.20455H93.3409V9.56818H86.9318V7.20455ZM97.2798 11.7955V0.159092H100.439V9.25H105.143V11.7955H97.2798ZM6.56818 19.7955C6.53788 19.4167 6.39583 19.1212 6.14205 18.9091C5.89205 18.697 5.51137 18.5909 5 18.5909C4.67424 18.5909 4.4072 18.6307 4.19886 18.7102C3.99432 18.786 3.8428 18.8902 3.74432 19.0227C3.64583 19.1553 3.5947 19.3068 3.59091 19.4773C3.58333 19.6174 3.60796 19.7443 3.66477 19.858C3.72538 19.9678 3.82008 20.0682 3.94886 20.1591C4.07765 20.2462 4.24243 20.3258 4.44318 20.3977C4.64394 20.4697 4.88258 20.5341 5.15909 20.5909L6.11364 20.7955C6.75758 20.9318 7.30871 21.1117 7.76705 21.3352C8.22538 21.5587 8.60038 21.822 8.89205 22.125C9.18371 22.4242 9.39773 22.7614 9.53409 23.1364C9.67424 23.5114 9.74621 23.9205 9.75 24.3636C9.74621 25.1288 9.55493 25.7765 9.17614 26.3068C8.79735 26.8371 8.25568 27.2405 7.55114 27.517C6.85038 27.7936 6.00758 27.9318 5.02273 27.9318C4.01137 27.9318 3.12879 27.7822 2.375 27.483C1.625 27.1837 1.04167 26.7235 0.625001 26.1023C0.212123 25.4773 0.00378928 24.678 1.40071e-06 23.7045H3C3.01894 24.0606 3.10796 24.3598 3.26705 24.6023C3.42614 24.8447 3.64962 25.0284 3.9375 25.1534C4.22917 25.2784 4.57576 25.3409 4.97727 25.3409C5.3144 25.3409 5.59659 25.2992 5.82387 25.2159C6.05114 25.1326 6.22349 25.017 6.34091 24.8693C6.45833 24.7216 6.51894 24.553 6.52273 24.3636C6.51894 24.1856 6.46023 24.0303 6.34659 23.8977C6.23674 23.7614 6.05493 23.6402 5.80114 23.5341C5.54735 23.4242 5.20455 23.322 4.77273 23.2273L3.61364 22.9773C2.58333 22.7538 1.77083 22.3807 1.17614 21.858C0.585229 21.3314 0.291668 20.6136 0.295456 19.7045C0.291668 18.9659 0.488638 18.3201 0.886365 17.767C1.28788 17.2102 1.8428 16.7765 2.55114 16.4659C3.26326 16.1553 4.07955 16 5 16C5.9394 16 6.7519 16.1572 7.4375 16.4716C8.12311 16.786 8.65152 17.2292 9.02273 17.8011C9.39773 18.3693 9.58712 19.0341 9.59091 19.7955H6.56818ZM10.9517 27.7955V16.1591H14.1108V20.7045H18.2926V16.1591H21.4517V27.7955H18.2926V23.25H14.1108V27.7955H10.9517ZM34.2244 21.9773C34.2244 23.2727 33.9725 24.3655 33.4688 25.2557C32.965 26.142 32.285 26.8144 31.429 27.2727C30.5729 27.7273 29.6184 27.9545 28.5653 27.9545C27.5047 27.9545 26.5464 27.7254 25.6903 27.267C24.8381 26.8049 24.16 26.1307 23.6563 25.2443C23.1563 24.3542 22.9063 23.2652 22.9063 21.9773C22.9063 20.6818 23.1563 19.5909 23.6563 18.7045C24.16 17.8144 24.8381 17.142 25.6903 16.6875C26.5464 16.2292 27.5047 16 28.5653 16C29.6184 16 30.5729 16.2292 31.429 16.6875C32.285 17.142 32.965 17.8144 33.4688 18.7045C33.9725 19.5909 34.2244 20.6818 34.2244 21.9773ZM30.9744 21.9773C30.9744 21.2803 30.8816 20.6932 30.696 20.2159C30.5142 19.7348 30.2434 19.3712 29.8835 19.125C29.5275 18.875 29.0881 18.75 28.5653 18.75C28.0426 18.75 27.6013 18.875 27.2415 19.125C26.8854 19.3712 26.6146 19.7348 26.429 20.2159C26.2472 20.6932 26.1563 21.2803 26.1563 21.9773C26.1563 22.6742 26.2472 23.2633 26.429 23.7443C26.6146 24.2216 26.8854 24.5852 27.2415 24.8352C27.6013 25.0814 28.0426 25.2045 28.5653 25.2045C29.0881 25.2045 29.5275 25.0814 29.8835 24.8352C30.2434 24.5852 30.5142 24.2216 30.696 23.7443C30.8816 23.2633 30.9744 22.6742 30.9744 21.9773ZM35.6861 27.7955V16.1591H40.7088C41.5724 16.1591 42.3281 16.3295 42.9759 16.6705C43.6236 17.0114 44.1274 17.4905 44.4872 18.108C44.8471 18.7254 45.027 19.447 45.027 20.2727C45.027 21.1061 44.8414 21.8277 44.4702 22.4375C44.1027 23.0473 43.5857 23.517 42.919 23.8466C42.2562 24.1761 41.4815 24.3409 40.5952 24.3409H37.5952V21.8864H39.9588C40.33 21.8864 40.6463 21.822 40.9077 21.6932C41.1728 21.5606 41.3755 21.3731 41.5156 21.1307C41.6596 20.8883 41.7315 20.6023 41.7315 20.2727C41.7315 19.9394 41.6596 19.6553 41.5156 19.4205C41.3755 19.1818 41.1728 19 40.9077 18.875C40.6463 18.7462 40.33 18.6818 39.9588 18.6818H38.8452V27.7955H35.6861Z" fill="#025726"/>
</svg>
