<svg width="96" height="78" viewBox="0 0 96 78" fill="none" xmlns="http://www.w3.org/2000/svg">
<path d="M0.44318 17.6932V0.238638H5.18182V7.29546H5.42045L10.6705 0.238638H16.1932L10.2955 8.01137L16.3295 17.6932H10.6705L6.75 11.1477L5.18182 13.1932V17.6932H0.44318ZM33.407 8.96591C33.407 10.9091 33.0291 12.5483 32.2734 13.8835C31.5178 15.2131 30.4979 16.2216 29.2138 16.9091C27.9297 17.5909 26.4979 17.9318 24.9183 17.9318C23.3274 17.9318 21.8899 17.5881 20.6058 16.9006C19.3274 16.2074 18.3104 15.196 17.5547 13.8665C16.8047 12.5313 16.4297 10.8977 16.4297 8.96591C16.4297 7.02273 16.8047 5.38637 17.5547 4.05682C18.3104 2.72159 19.3274 1.71307 20.6058 1.03125C21.8899 0.343751 23.3274 1.43051e-06 24.9183 1.43051e-06C26.4979 1.43051e-06 27.9297 0.343751 29.2138 1.03125C30.4979 1.71307 31.5178 2.72159 32.2734 4.05682C33.0291 5.38637 33.407 7.02273 33.407 8.96591ZM28.532 8.96591C28.532 7.92046 28.3928 7.03977 28.1143 6.32387C27.8416 5.60227 27.4354 5.05682 26.8956 4.6875C26.3615 4.3125 25.7024 4.125 24.9183 4.125C24.1342 4.125 23.4723 4.3125 22.9325 4.6875C22.3984 5.05682 21.9922 5.60227 21.7138 6.32387C21.441 7.03977 21.3047 7.92046 21.3047 8.96591C21.3047 10.0114 21.441 10.8949 21.7138 11.6165C21.9922 12.3324 22.3984 12.8778 22.9325 13.2528C23.4723 13.6222 24.1342 13.8068 24.9183 13.8068C25.7024 13.8068 26.3615 13.6222 26.8956 13.2528C27.4354 12.8778 27.8416 12.3324 28.1143 11.6165C28.3928 10.8949 28.532 10.0114 28.532 8.96591ZM35.5994 17.6932V0.238638H43.1335C44.429 0.238638 45.5625 0.49432 46.5341 1.00568C47.5057 1.51705 48.2614 2.2358 48.8011 3.16193C49.3409 4.08807 49.6108 5.17046 49.6108 6.40909C49.6108 7.65909 49.3324 8.74148 48.7756 9.65625C48.2244 10.571 47.4489 11.2756 46.4489 11.7699C45.4545 12.2642 44.2926 12.5114 42.9631 12.5114H38.4631V8.82955H42.0085C42.5653 8.82955 43.0398 8.73296 43.4318 8.53977C43.8295 8.34091 44.1335 8.05966 44.3437 7.69602C44.5597 7.33239 44.6676 6.90341 44.6676 6.40909C44.6676 5.90909 44.5597 5.48296 44.3437 5.13068C44.1335 4.77273 43.8295 4.5 43.4318 4.3125C43.0398 4.11932 42.5653 4.02273 42.0085 4.02273H40.3381V17.6932H35.5994ZM56.0881 0.238638V17.6932H51.3494V0.238638H56.0881ZM0.44318 47.6932V30.2386H5.18182V37.2955H5.42045L10.6705 30.2386H16.1932L10.2955 38.0114L16.3295 47.6932H10.6705L6.75 41.1477L5.18182 43.1932V47.6932H0.44318ZM17.5994 47.6932V30.2386H30.179V34.0568H22.3381V37.0568H29.5312V40.875H22.3381V43.875H30.1449V47.6932H17.5994ZM47.6314 30.2386V47.6932H43.6768L37.37 38.5227H37.2678V47.6932H32.5291V30.2386H36.5518L42.7564 39.375H42.8928V30.2386H47.6314ZM49.3956 34.0568V30.2386H64.5661V34.0568H59.3161V47.6932H54.6456V34.0568H49.3956ZM68.6804 47.6932H63.5668L69.3281 30.2386H75.8054L81.5668 47.6932H76.4531L72.6349 35.0455H72.4986L68.6804 47.6932ZM67.7259 40.8068H77.3395V44.3523H67.7259V40.8068ZM83.2479 47.6932V30.2386H87.9865V43.875H95.0433V47.6932H83.2479ZM9.85227 65.6932C9.80682 65.125 9.59375 64.6818 9.21307 64.3636C8.83807 64.0455 8.26704 63.8864 7.5 63.8864C7.01136 63.8864 6.61079 63.946 6.29829 64.0653C5.99148 64.179 5.7642 64.3352 5.61648 64.5341C5.46875 64.733 5.39204 64.9602 5.38636 65.2159C5.375 65.4261 5.41193 65.6165 5.49716 65.7869C5.58807 65.9517 5.73011 66.1023 5.92329 66.2386C6.11648 66.3693 6.36363 66.4886 6.66477 66.5966C6.96591 66.7045 7.32386 66.8011 7.73863 66.8864L9.17045 67.1932C10.1364 67.3977 10.9631 67.6676 11.6506 68.0028C12.3381 68.3381 12.9006 68.733 13.3381 69.1875C13.7756 69.6364 14.0966 70.142 14.3011 70.7045C14.5114 71.267 14.6193 71.8807 14.625 72.5455C14.6193 73.6932 14.3324 74.6648 13.7642 75.4602C13.196 76.2557 12.3835 76.8608 11.3267 77.2756C10.2756 77.6903 9.01136 77.8977 7.53409 77.8977C6.01704 77.8977 4.69318 77.6733 3.5625 77.2244C2.4375 76.7756 1.5625 76.0852 0.937498 75.1534C0.31818 74.2159 0.0056801 73.017 -1.71363e-06 71.5568H4.5C4.52841 72.0909 4.66193 72.5398 4.90057 72.9034C5.1392 73.267 5.47443 73.5426 5.90625 73.7301C6.34375 73.9176 6.86363 74.0114 7.46591 74.0114C7.97159 74.0114 8.39488 73.9489 8.73579 73.8239C9.0767 73.6989 9.33523 73.5256 9.51136 73.304C9.6875 73.0824 9.77841 72.8295 9.78409 72.5455C9.77841 72.2784 9.69034 72.0455 9.51988 71.8466C9.35511 71.642 9.08239 71.4602 8.7017 71.3011C8.32102 71.1364 7.80682 70.983 7.15909 70.8409L5.42045 70.4659C3.875 70.1307 2.65625 69.571 1.7642 68.7869C0.877839 67.9972 0.437498 66.9205 0.44318 65.5568C0.437498 64.4489 0.732953 63.4801 1.32954 62.6506C1.93182 61.8153 2.7642 61.1648 3.8267 60.6989C4.89489 60.233 6.11932 60 7.5 60C8.90909 60 10.1278 60.2358 11.1562 60.7074C12.1847 61.179 12.9773 61.8438 13.5341 62.7017C14.0966 63.554 14.3807 64.5511 14.3864 65.6932H9.85227ZM16.4276 77.6932V60.2386H21.1662V67.0568H27.4389V60.2386H32.1776V77.6932H27.4389V70.875H21.1662V77.6932H16.4276ZM51.3366 68.9659C51.3366 70.9091 50.9588 72.5483 50.2031 73.8835C49.4474 75.2131 48.4276 76.2216 47.1435 76.9091C45.8594 77.5909 44.4276 77.9318 42.848 77.9318C41.2571 77.9318 39.8196 77.5881 38.5355 76.9006C37.2571 76.2074 36.2401 75.196 35.4844 73.8665C34.7344 72.5313 34.3594 70.8977 34.3594 68.9659C34.3594 67.0227 34.7344 65.3864 35.4844 64.0568C36.2401 62.7216 37.2571 61.7131 38.5355 61.0313C39.8196 60.3438 41.2571 60 42.848 60C44.4276 60 45.8594 60.3438 47.1435 61.0313C48.4276 61.7131 49.4474 62.7216 50.2031 64.0568C50.9588 65.3864 51.3366 67.0227 51.3366 68.9659ZM46.4616 68.9659C46.4616 67.9205 46.3224 67.0398 46.044 66.3239C45.7713 65.6023 45.3651 65.0568 44.8253 64.6875C44.2912 64.3125 43.6321 64.125 42.848 64.125C42.0639 64.125 41.402 64.3125 40.8622 64.6875C40.3281 65.0568 39.9219 65.6023 39.6435 66.3239C39.3707 67.0398 39.2344 67.9205 39.2344 68.9659C39.2344 70.0114 39.3707 70.8949 39.6435 71.6165C39.9219 72.3324 40.3281 72.8778 40.8622 73.2528C41.402 73.6222 42.0639 73.8068 42.848 73.8068C43.6321 73.8068 44.2912 73.6222 44.8253 73.2528C45.3651 72.8778 45.7713 72.3324 46.044 71.6165C46.3224 70.8949 46.4616 70.0114 46.4616 68.9659ZM53.5291 77.6932V60.2386H61.0632C62.3587 60.2386 63.4922 60.4943 64.4638 61.0057C65.4354 61.517 66.1911 62.2358 66.7308 63.1619C67.2706 64.0881 67.5405 65.1705 67.5405 66.4091C67.5405 67.6591 67.2621 68.7415 66.7053 69.6563C66.1541 70.571 65.3786 71.2756 64.3786 71.7699C63.3842 72.2642 62.2223 72.5114 60.8928 72.5114H56.3928V68.8295H59.9382C60.495 68.8295 60.9695 68.733 61.3615 68.5398C61.7592 68.3409 62.0632 68.0597 62.2734 67.696C62.4893 67.3324 62.5973 66.9034 62.5973 66.4091C62.5973 65.9091 62.4893 65.483 62.2734 65.1307C62.0632 64.7727 61.7592 64.5 61.3615 64.3125C60.9695 64.1193 60.495 64.0227 59.9382 64.0227H58.2678V77.6932H53.5291Z" fill="#025726"/>
</svg>
