<svg width="64" height="44" viewBox="0 0 64 44" fill="none" xmlns="http://www.w3.org/2000/svg">
<path d="M0.0454559 11.6364V3.8147e-06H5.06818C5.93182 3.8147e-06 6.6875 0.170458 7.33523 0.511368C7.98296 0.852276 8.48674 1.33144 8.84659 1.94887C9.20644 2.56629 9.38636 3.28788 9.38636 4.11364C9.38636 4.94697 9.20076 5.66856 8.82955 6.27841C8.46212 6.88826 7.94508 7.35796 7.27841 7.6875C6.61553 8.01705 5.84091 8.18182 4.95455 8.18182H1.95455V5.72728H4.31818C4.6894 5.72728 5.00568 5.66288 5.26705 5.53409C5.5322 5.40152 5.73485 5.21402 5.875 4.97159C6.01894 4.72917 6.09091 4.44319 6.09091 4.11364C6.09091 3.78031 6.01894 3.49622 5.875 3.26137C5.73485 3.02273 5.5322 2.84091 5.26705 2.71591C5.00568 2.58712 4.6894 2.52273 4.31818 2.52273H3.20455V11.6364H0.0454559ZM10.5455 11.6364V3.8147e-06H18.9318V2.54546H13.7045V4.54546H18.5V7.09091H13.7045V9.09091H18.9091V11.6364H10.5455ZM20.1804 2.54546V3.8147e-06H30.294V2.54546H26.794V11.6364H23.6804V2.54546H20.1804ZM34.642 3.8147e-06V11.6364H31.483V3.8147e-06H34.642ZM36.1392 11.6364V3.8147e-06H39.2983V4.70455H39.4574L42.9574 3.8147e-06H46.6392L42.7074 5.18182L46.7301 11.6364H42.9574L40.3438 7.27273L39.2983 8.63637V11.6364H36.1392ZM0.0454559 27.6364V16H3.20455V20.7045H3.36364L6.86364 16H10.5455L6.61364 21.1818L10.6364 27.6364H6.86364L4.25 23.2727L3.20455 24.6364V27.6364H0.0454559ZM11.483 27.6364V16H19.8693V18.5455H14.642V20.5455H19.4375V23.0909H14.642V25.0909H19.8466V27.6364H11.483ZM31.5043 16V27.6364H28.8679L24.6634 21.5227H24.5952V27.6364H21.4361V16H24.1179L28.2543 22.0909H28.3452V16H31.5043ZM32.6804 18.5455V16H42.794V18.5455H39.294V27.6364H36.1804V18.5455H32.6804ZM45.5369 27.6364H42.1278L45.9688 16H50.2869L54.1278 27.6364H50.7188L48.1733 19.2045H48.0824L45.5369 27.6364ZM44.9006 23.0455H51.3097V25.4091H44.9006V23.0455ZM55.2486 27.6364V16H58.4077V25.0909H63.1122V27.6364H55.2486ZM10.9091 36.3636H7.70455C7.68182 36.0985 7.62121 35.858 7.52273 35.642C7.42803 35.4261 7.29546 35.2405 7.125 35.0852C6.95833 34.9261 6.75568 34.8049 6.51705 34.7216C6.27841 34.6345 6.00758 34.5909 5.70455 34.5909C5.17424 34.5909 4.72538 34.7197 4.35796 34.9773C3.99432 35.2349 3.7178 35.6042 3.52841 36.0852C3.3428 36.5663 3.25 37.1439 3.25 37.8182C3.25 38.5303 3.3447 39.1269 3.53409 39.608C3.72727 40.0852 4.00568 40.4451 4.36932 40.6875C4.73296 40.9261 5.17046 41.0455 5.68182 41.0455C5.97349 41.0455 6.23485 41.0095 6.46591 40.9375C6.69697 40.8617 6.89773 40.7538 7.06818 40.6136C7.23864 40.4735 7.3769 40.3049 7.48296 40.108C7.5928 39.9072 7.66667 39.6818 7.70455 39.4318L10.9091 39.4545C10.8712 39.947 10.733 40.4489 10.4943 40.9602C10.2557 41.4678 9.91667 41.9375 9.47727 42.3693C9.04167 42.7974 8.5019 43.142 7.85796 43.4034C7.21402 43.6648 6.46591 43.7955 5.61364 43.7955C4.54546 43.7955 3.58712 43.5663 2.73864 43.108C1.89394 42.6496 1.22538 41.9754 0.732956 41.0852C0.24432 40.1951 1.43051e-06 39.1061 1.43051e-06 37.8182C1.43051e-06 36.5227 0.250001 35.4318 0.750001 34.5455C1.25 33.6553 1.92424 32.983 2.77273 32.5284C3.62121 32.0701 4.56818 31.8409 5.61364 31.8409C6.34849 31.8409 7.02462 31.9413 7.64205 32.142C8.25947 32.3428 8.80114 32.6364 9.26705 33.0227C9.73296 33.4053 10.108 33.8769 10.392 34.4375C10.6761 34.9981 10.8485 35.6402 10.9091 36.3636ZM23.6151 37.8182C23.6151 39.1136 23.3632 40.2064 22.8594 41.0966C22.3556 41.983 21.6757 42.6553 20.8196 43.1136C19.9635 43.5682 19.009 43.7955 17.956 43.7955C16.8954 43.7955 15.937 43.5663 15.081 43.108C14.2287 42.6458 13.5507 41.9716 13.0469 41.0852C12.5469 40.1951 12.2969 39.1061 12.2969 37.8182C12.2969 36.5227 12.5469 35.4318 13.0469 34.5455C13.5507 33.6553 14.2287 32.983 15.081 32.5284C15.937 32.0701 16.8954 31.8409 17.956 31.8409C19.009 31.8409 19.9635 32.0701 20.8196 32.5284C21.6757 32.983 22.3556 33.6553 22.8594 34.5455C23.3632 35.4318 23.6151 36.5227 23.6151 37.8182ZM20.3651 37.8182C20.3651 37.1212 20.2723 36.5341 20.0866 36.0568C19.9048 35.5758 19.634 35.2121 19.2741 34.9659C18.9181 34.7159 18.4787 34.5909 17.956 34.5909C17.4332 34.5909 16.992 34.7159 16.6321 34.9659C16.276 35.2121 16.0052 35.5758 15.8196 36.0568C15.6378 36.5341 15.5469 37.1212 15.5469 37.8182C15.5469 38.5152 15.6378 39.1042 15.8196 39.5852C16.0052 40.0625 16.276 40.4261 16.6321 40.6761C16.992 40.9224 17.4332 41.0455 17.956 41.0455C18.4787 41.0455 18.9181 40.9224 19.2741 40.6761C19.634 40.4261 19.9048 40.0625 20.0866 39.5852C20.2723 39.1042 20.3651 38.5152 20.3651 37.8182ZM25.0767 43.6364V32H33.2585V34.5455H28.2358V36.5455H32.7585V39.0909H28.2358V43.6364H25.0767ZM34.4205 43.6364V32H42.6023V34.5455H37.5795V36.5455H42.1023V39.0909H37.5795V43.6364H34.4205ZM43.7642 43.6364V32H52.1506V34.5455H46.9233V36.5455H51.7188V39.0909H46.9233V41.0909H52.1278V43.6364H43.7642ZM53.7173 43.6364V32H62.1037V34.5455H56.8764V36.5455H61.6719V39.0909H56.8764V41.0909H62.081V43.6364H53.7173Z" fill="#025726"/>
</svg>
